# xmcd
# 
# Track frame offsets:
#     150
#     25225
#     48825
#     69095
#     91742
#     107892
#     132497
#     152472
#     170482
#     189480
#     206645
#     229060
#     249912
#     273492
# 
# Disc length: 3971 seconds
# 
# Revision: 5
# Processed by: cddbd v1.5.1PL0 Copyright (c) Steve Scherf et al.
# Submitted via: BonkEnc v1.0beta1
# 
DISCID=b30f810e
DTITLE=Steven Curtis Chapman - Greatest Hits - Steven Curtis Chapman
DYEAR=1997
DGENRE=Contemporary Christian
TTITLE0=01 - Not Home Yet
TTITLE1=02 - More To This Life
TTITLE2=03 - The Great Adventure
TTITLE3=04 - That's Paradise
TTITLE4=05 - His Eyes
TTITLE5=06 - For The Sake Of The Call
TTITLE6=07 - I Will Be Here
TTITLE7=08 - I Am Found in You
TTITLE8=09 - Heaven In The Real World
TTITLE9=10 - No Better Place
TTITLE10=1 - Hiding Place
TTITLE11=12 - His Strength is Perfect
TTITLE12=13 - Lord Of The Dance
TTITLE13=14 - The Walk
EXTD=
EXTT0=
EXTT1=
EXTT2=
EXTT3=
EXTT4=
EXTT5=
EXTT6=
EXTT7=
EXTT8=
EXTT9=
EXTT10=
EXTT11=
EXTT12=
EXTT13=
PLAYORDER=
